<svg width="179" height="51" viewBox="0 0 179 51" xmlns="http://www.w3.org/2000/svg">
<path d="M5.0391 22.8404V18.5652H8.8023C9.1607 18.5652 9.50204 18.5993 9.8263 18.6676C10.1676 18.7188 10.4663 18.8212 10.7223 18.9748C10.9783 19.1284 11.1831 19.3417 11.3367 19.6148C11.4903 19.8879 11.5671 20.2377 11.5671 20.6644C11.5671 21.4324 11.3367 21.9871 10.8759 22.3284C10.4151 22.6697 9.8263 22.8404 9.1095 22.8404H5.0391ZM1.0199 15.442V33.7204H9.8775C10.6967 33.7204 11.4903 33.618 12.2583 33.4132C13.0434 33.2084 13.7346 32.8927 14.3319 32.466C14.9463 32.0393 15.4327 31.4932 15.7911 30.8276C16.1495 30.1449 16.3287 29.3428 16.3287 28.4212C16.3287 27.2777 16.0471 26.3049 15.4839 25.5028C14.9378 24.6836 14.1015 24.1119 12.9751 23.7876C13.7943 23.3951 14.4087 22.8916 14.8183 22.2772C15.245 21.6628 15.4583 20.8948 15.4583 19.9732C15.4583 19.1199 15.3132 18.4031 15.0231 17.8228C14.75 17.2425 14.3575 16.7817 13.8455 16.4404C13.3335 16.082 12.7191 15.826 12.0023 15.6724C11.2855 15.5188 10.4919 15.442 9.6215 15.442H1.0199ZM5.0391 30.5972V25.5796H9.4167C10.2871 25.5796 10.9868 25.7844 11.5159 26.194C12.045 26.5865 12.3095 27.2521 12.3095 28.1908C12.3095 28.6687 12.2242 29.0612 12.0535 29.3684C11.8999 29.6756 11.6866 29.9231 11.4135 30.1108C11.1404 30.2815 10.8247 30.4095 10.4663 30.4948C10.1079 30.5631 9.73244 30.5972 9.3399 30.5972H5.0391Z" fill="#333333"/>
<path d="M18.9169 15.442V33.7204H22.9361V15.442H18.9169Z" fill="#333333"/>
<path d="M29.5645 24.658C29.5645 23.8559 29.6498 23.0793 29.8205 22.3284C30.0082 21.5775 30.2984 20.9119 30.6909 20.3316C31.0834 19.7343 31.5954 19.2649 32.2269 18.9236C32.8584 18.5652 33.6264 18.386 34.5309 18.386C35.4354 18.386 36.2034 18.5652 36.8349 18.9236C37.4664 19.2649 37.9784 19.7343 38.3709 20.3316C38.7634 20.9119 39.045 21.5775 39.2157 22.3284C39.4034 23.0793 39.4973 23.8559 39.4973 24.658C39.4973 25.426 39.4034 26.1769 39.2157 26.9108C39.045 27.6276 38.7634 28.2761 38.3709 28.8564C37.9784 29.4367 37.4664 29.906 36.8349 30.2644C36.2034 30.6057 35.4354 30.7764 34.5309 30.7764C33.6264 30.7764 32.8584 30.6057 32.2269 30.2644C31.5954 29.906 31.0834 29.4367 30.6909 28.8564C30.2984 28.2761 30.0082 27.6276 29.8205 26.9108C29.6498 26.1769 29.5645 25.426 29.5645 24.658ZM25.5453 24.658C25.5453 25.9892 25.7501 27.2351 26.1597 28.3956C26.5693 29.5391 27.1581 30.5375 27.9261 31.3908C28.6941 32.2441 29.6328 32.9183 30.7421 33.4132C31.8685 33.8911 33.1314 34.13 34.5309 34.13C35.9474 34.13 37.2104 33.8911 38.3197 33.4132C39.429 32.9183 40.3677 32.2441 41.1357 31.3908C41.9037 30.5375 42.4925 29.5391 42.9021 28.3956C43.3117 27.2351 43.5165 25.9892 43.5165 24.658C43.5165 23.2927 43.3117 22.0297 42.9021 20.8692C42.4925 19.6916 41.9037 18.6676 41.1357 17.7972C40.3677 16.9268 39.429 16.2441 38.3197 15.7492C37.2104 15.2543 35.9474 15.0068 34.5309 15.0068C33.1314 15.0068 31.8685 15.2543 30.7421 15.7492C29.6328 16.2441 28.6941 16.9268 27.9261 17.7972C27.1581 18.6676 26.5693 19.6916 26.1597 20.8692C25.7501 22.0297 25.5453 23.2927 25.5453 24.658Z" fill="#333333"/>
<path d="M50.1551 22.8404V18.5652H53.9183C54.2767 18.5652 54.618 18.5993 54.9423 18.6676C55.2836 18.7188 55.5823 18.8212 55.8383 18.9748C56.0943 19.1284 56.2991 19.3417 56.4527 19.6148C56.6063 19.8879 56.6831 20.2377 56.6831 20.6644C56.6831 21.4324 56.4527 21.9871 55.9919 22.3284C55.5311 22.6697 54.9423 22.8404 54.2255 22.8404H50.1551ZM46.1359 15.442V33.7204H54.9935C55.8127 33.7204 56.6063 33.618 57.3743 33.4132C58.1594 33.2084 58.8506 32.8927 59.4479 32.466C60.0623 32.0393 60.5487 31.4932 60.9071 30.8276C61.2655 30.1449 61.4447 29.3428 61.4447 28.4212C61.4447 27.2777 61.1631 26.3049 60.5999 25.5028C60.0538 24.6836 59.2175 24.1119 58.0911 23.7876C58.9103 23.3951 59.5247 22.8916 59.9343 22.2772C60.361 21.6628 60.5743 20.8948 60.5743 19.9732C60.5743 19.1199 60.4292 18.4031 60.1391 17.8228C59.866 17.2425 59.4735 16.7817 58.9615 16.4404C58.4495 16.082 57.8351 15.826 57.1183 15.6724C56.4015 15.5188 55.6079 15.442 54.7375 15.442H46.1359ZM50.1551 30.5972V25.5796H54.5327C55.4031 25.5796 56.1028 25.7844 56.6319 26.194C57.161 26.5865 57.4255 27.2521 57.4255 28.1908C57.4255 28.6687 57.3402 29.0612 57.1695 29.3684C57.0159 29.6756 56.8026 29.9231 56.5295 30.1108C56.2564 30.2815 55.9407 30.4095 55.5823 30.4948C55.2239 30.5631 54.8484 30.5972 54.4559 30.5972H50.1551Z" fill="#333333"/>
<path d="M68.0521 23.7108V18.5652H72.4553C73.3769 18.5652 74.0681 18.77 74.5289 19.1796C74.9897 19.5721 75.2201 20.2121 75.2201 21.0996C75.2201 22.0212 74.9897 22.6868 74.5289 23.0964C74.0681 23.506 73.3769 23.7108 72.4553 23.7108H68.0521ZM64.0329 15.442V33.7204H68.0521V26.578H72.0713C73.0782 26.578 73.8036 26.7999 74.2473 27.2436C74.691 27.6873 74.9812 28.3871 75.1177 29.3428C75.2201 30.0767 75.2969 30.8447 75.3481 31.6468C75.3993 32.4489 75.5358 33.1401 75.7577 33.7204H79.7769C79.5892 33.4644 79.4441 33.1572 79.3417 32.7988C79.2564 32.4233 79.1881 32.0308 79.1369 31.6212C79.1028 31.2116 79.0772 30.8105 79.0601 30.418C79.043 30.0255 79.026 29.6841 79.0089 29.394C78.9748 28.9332 78.9065 28.4724 78.8041 28.0116C78.7188 27.5508 78.5737 27.1327 78.3689 26.7572C78.1641 26.3647 77.8996 26.0319 77.5753 25.7588C77.251 25.4687 76.8414 25.2553 76.3465 25.1188V25.0676C77.3705 24.658 78.1044 24.0607 78.5481 23.2756C79.0089 22.4905 79.2393 21.5604 79.2393 20.4852C79.2393 19.7855 79.1113 19.1369 78.8553 18.5396C78.6164 17.9252 78.258 17.3876 77.7801 16.9268C77.3193 16.466 76.7561 16.1076 76.0905 15.8516C75.442 15.5785 74.7081 15.442 73.8889 15.442H64.0329Z" fill="#333333"/>
<path d="M82.3799 15.442V33.7204H96.2551V30.3412H86.3991V25.8612H95.2567V22.738H86.3991V18.8212H96.0503V15.442H82.3799Z" fill="#333333"/>
<path d="M98.8519 15.442V33.7204H102.615V21.4836H102.666L110.27 33.7204H114.289V15.442H110.525V27.7044H110.474L102.845 15.442H98.8519Z" fill="#333333"/>
<path d="M120.438 27.6532H116.547C116.53 28.7796 116.735 29.7524 117.161 30.5716C117.588 31.3908 118.16 32.0649 118.876 32.594C119.61 33.1231 120.447 33.5071 121.385 33.746C122.341 34.002 123.322 34.13 124.329 34.13C125.575 34.13 126.667 33.9849 127.606 33.6948C128.562 33.4047 129.355 33.0036 129.987 32.4916C130.635 31.9625 131.122 31.3396 131.446 30.6228C131.77 29.906 131.933 29.1295 131.933 28.2932C131.933 27.2692 131.711 26.4329 131.267 25.7844C130.84 25.1188 130.328 24.5897 129.731 24.1972C129.134 23.8047 128.528 23.5231 127.913 23.3524C127.316 23.1647 126.847 23.0367 126.505 22.9684C125.362 22.6783 124.432 22.4393 123.715 22.2516C123.015 22.0639 122.46 21.8761 122.051 21.6884C121.658 21.5007 121.394 21.2959 121.257 21.074C121.121 20.8521 121.052 20.562 121.052 20.2036C121.052 19.8111 121.138 19.4868 121.308 19.2308C121.479 18.9748 121.692 18.7615 121.948 18.5908C122.222 18.4201 122.52 18.3007 122.844 18.2324C123.169 18.1641 123.493 18.13 123.817 18.13C124.312 18.13 124.764 18.1727 125.174 18.258C125.601 18.3433 125.976 18.4884 126.3 18.6932C126.625 18.898 126.881 19.1796 127.068 19.538C127.273 19.8964 127.393 20.3487 127.427 20.8948H131.318C131.318 19.8367 131.113 18.9407 130.704 18.2068C130.311 17.4559 129.774 16.8415 129.091 16.3636C128.408 15.8857 127.623 15.5444 126.736 15.3396C125.865 15.1177 124.952 15.0068 123.996 15.0068C123.177 15.0068 122.358 15.1177 121.539 15.3396C120.72 15.5615 119.986 15.9028 119.337 16.3636C118.689 16.8244 118.16 17.4047 117.75 18.1044C117.358 18.7871 117.161 19.5977 117.161 20.5364C117.161 21.3727 117.315 22.0895 117.622 22.6868C117.946 23.2671 118.364 23.7535 118.876 24.146C119.388 24.5385 119.969 24.8628 120.617 25.1188C121.266 25.3577 121.931 25.5625 122.614 25.7332C123.28 25.9209 123.937 26.0916 124.585 26.2452C125.234 26.3988 125.814 26.578 126.326 26.7828C126.838 26.9876 127.248 27.2436 127.555 27.5508C127.879 27.858 128.041 28.2591 128.041 28.754C128.041 29.2148 127.922 29.5988 127.683 29.906C127.444 30.1961 127.145 30.4265 126.787 30.5972C126.428 30.7679 126.044 30.8873 125.635 30.9556C125.225 31.0068 124.841 31.0324 124.483 31.0324C123.954 31.0324 123.442 30.9727 122.947 30.8532C122.452 30.7167 122.017 30.5204 121.641 30.2644C121.283 29.9913 120.993 29.6415 120.771 29.2148C120.549 28.7881 120.438 28.2676 120.438 27.6532Z" fill="#333333"/>
<path d="M134.196 15.442V33.7204H148.071V30.3412H138.215V25.8612H147.073V22.738H138.215V18.8212H147.866V15.442H134.196Z" fill="#333333"/>
<path d="M150.668 15.442V33.7204H163.596V30.3412H154.687V15.442H150.668Z" fill="#333333"/>
<path d="M3.00874 8.1709H0.641308C0.630925 8.8562 0.755526 9.44806 1.01511 9.94647C1.2747 10.4449 1.62254 10.855 2.05865 11.1769C2.50514 11.4988 3.01393 11.7324 3.58502 11.8778C4.16649 12.0335 4.76354 12.1114 5.37616 12.1114C6.13415 12.1114 6.79869 12.0232 7.36978 11.8466C7.95126 11.6701 8.43409 11.4261 8.81828 11.1146C9.21285 10.7927 9.50878 10.4137 9.70606 9.97762C9.90335 9.54151 10.002 9.06906 10.002 8.56028C10.002 7.93727 9.867 7.42848 9.59704 7.03391C9.33745 6.62895 9.02595 6.30707 8.66253 6.06825C8.2991 5.82943 7.93049 5.6581 7.55669 5.55427C7.19327 5.44005 6.90772 5.36217 6.70005 5.32064C6.00436 5.14412 5.43846 4.99875 5.00236 4.88453C4.57664 4.77032 4.23917 4.6561 3.98997 4.54188C3.75115 4.42766 3.59021 4.30306 3.50714 4.16808C3.42407 4.03309 3.38254 3.85657 3.38254 3.63852C3.38254 3.3997 3.43446 3.20241 3.53829 3.04666C3.64213 2.89091 3.77192 2.76112 3.92767 2.65728C4.09381 2.55345 4.27552 2.48076 4.4728 2.43923C4.67009 2.3977 4.86737 2.37693 5.06466 2.37693C5.36578 2.37693 5.64094 2.40289 5.89014 2.45481C6.14973 2.50672 6.37817 2.59498 6.57545 2.71958C6.77274 2.84419 6.92849 3.01551 7.04271 3.23356C7.16731 3.45162 7.23999 3.72678 7.26076 4.05905H9.62819C9.62819 3.41527 9.50358 2.87014 9.25438 2.42366C9.01556 1.96678 8.68848 1.59298 8.27314 1.30224C7.85781 1.01151 7.38017 0.803837 6.84023 0.679235C6.31067 0.544251 5.75516 0.476758 5.17369 0.476758C4.67528 0.476758 4.17687 0.544251 3.67847 0.679235C3.18006 0.81422 2.73357 1.02189 2.339 1.30224C1.94443 1.5826 1.62254 1.93563 1.37334 2.36135C1.13452 2.77669 1.01511 3.26991 1.01511 3.841C1.01511 4.34979 1.10856 4.78589 1.29547 5.14931C1.49275 5.50235 1.74715 5.79828 2.05865 6.0371C2.37015 6.27592 2.72319 6.4732 3.11776 6.62895C3.51233 6.77432 3.91729 6.89892 4.33263 7.00276C4.73758 7.11698 5.13734 7.22081 5.53191 7.31426C5.92649 7.40771 6.27952 7.51674 6.59103 7.64134C6.90253 7.76594 7.15173 7.92169 7.33863 8.1086C7.53592 8.2955 7.63456 8.53951 7.63456 8.84063C7.63456 9.12098 7.56188 9.35461 7.41651 9.54151C7.27114 9.71803 7.08943 9.85821 6.87138 9.96204C6.65333 10.0659 6.4197 10.1386 6.1705 10.1801C5.92129 10.2112 5.68767 10.2268 5.46961 10.2268C5.14773 10.2268 4.83622 10.1905 4.5351 10.1178C4.23398 10.0347 3.9692 9.91532 3.74077 9.75956C3.52272 9.59343 3.3462 9.38057 3.21121 9.12098C3.07623 8.8614 3.00874 8.5447 3.00874 8.1709Z" fill="#333333"/>
<path d="M14.4474 9.30788L19.042 4.23038C19.1874 4.55226 19.2912 4.89492 19.3535 5.25834C19.4262 5.61137 19.4626 5.9748 19.4626 6.3486C19.4626 6.81586 19.4055 7.27273 19.2912 7.71922C19.1874 8.15532 19.0161 8.54989 18.7773 8.90293C18.5384 9.25597 18.2269 9.54151 17.8428 9.75956C17.4586 9.96723 16.9913 10.0711 16.441 10.0711C16.0049 10.0711 15.6207 10.0036 15.2884 9.86859C14.9665 9.73361 14.6862 9.5467 14.4474 9.30788ZM18.4658 3.32702L13.8555 8.45125C13.6998 8.12936 13.5855 7.7919 13.5129 7.43886C13.4506 7.07544 13.4194 6.71202 13.4194 6.3486C13.4194 5.86058 13.4713 5.38813 13.5752 4.93126C13.6894 4.47439 13.8659 4.06943 14.1047 3.7164C14.3435 3.35297 14.655 3.06743 15.0392 2.85976C15.4234 2.64171 15.8907 2.53268 16.441 2.53268C16.8875 2.53268 17.2769 2.60537 17.6091 2.75073C17.9414 2.8961 18.2269 3.0882 18.4658 3.32702ZM12.2513 10.2268L10.9118 11.7065L11.675 12.3606L12.9677 10.9433C13.4038 11.3067 13.9126 11.5922 14.4941 11.7999C15.0756 12.0076 15.7245 12.1114 16.441 12.1114C17.3028 12.1114 18.0712 11.966 18.7461 11.6753C19.421 11.3742 19.9921 10.964 20.4594 10.4449C20.9266 9.9257 21.2849 9.31827 21.5341 8.62258C21.7833 7.9165 21.9079 7.15851 21.9079 6.3486C21.9079 5.56984 21.7988 4.85338 21.5808 4.19923C21.3731 3.54507 21.0668 2.95321 20.6619 2.42366L21.9702 0.975163L21.1914 0.289856L19.9454 1.67605C19.4989 1.29186 18.9797 0.995931 18.3879 0.788262C17.8064 0.580593 17.1574 0.476758 16.441 0.476758C15.5895 0.476758 14.8212 0.627318 14.1359 0.928438C13.4609 1.22956 12.8898 1.6449 12.4226 2.17445C11.9553 2.70401 11.5971 3.32702 11.3479 4.04347C11.0987 4.74955 10.9741 5.51792 10.9741 6.3486C10.9741 7.09621 11.0779 7.79709 11.2856 8.45125C11.4933 9.10541 11.8152 9.69726 12.2513 10.2268Z" fill="#333333"/>
<path d="M26.0247 5.77232V2.64171H28.7036C29.2643 2.64171 29.6849 2.76631 29.9652 3.01551C30.2456 3.25433 30.3858 3.64371 30.3858 4.18365C30.3858 4.74436 30.2456 5.14931 29.9652 5.39851C29.6849 5.64772 29.2643 5.77232 28.7036 5.77232H26.0247ZM23.5794 0.741536V11.8622H26.0247V7.51674H28.47C29.0826 7.51674 29.5239 7.65172 29.7939 7.92169C30.0639 8.19166 30.2404 8.61738 30.3235 9.19886C30.3858 9.64535 30.4325 10.1126 30.4636 10.6006C30.4948 11.0886 30.5779 11.5092 30.7128 11.8622H33.1581C33.0439 11.7065 32.9557 11.5196 32.8934 11.3015C32.8414 11.0731 32.7999 10.8343 32.7688 10.585C32.748 10.3358 32.7324 10.0918 32.722 9.85301C32.7117 9.6142 32.7013 9.40653 32.6909 9.23001C32.6701 8.94965 32.6286 8.6693 32.5663 8.38895C32.5144 8.1086 32.4261 7.8542 32.3015 7.62576C32.1769 7.38695 32.016 7.18447 31.8187 7.01833C31.6214 6.84181 31.3722 6.71202 31.0711 6.62895V6.5978C31.6941 6.3486 32.1406 5.98518 32.4105 5.50754C32.6909 5.0299 32.8311 4.464 32.8311 3.80985C32.8311 3.38412 32.7532 2.98955 32.5974 2.62613C32.4521 2.25233 32.234 1.92525 31.9433 1.6449C31.6629 1.36454 31.3203 1.14649 30.9153 0.990739C30.5207 0.824604 30.0743 0.741536 29.5759 0.741536H23.5794Z" fill="#333333"/>
<path d="M34.5705 6.6601V8.56028H39.2586V6.6601H34.5705Z" fill="#333333"/>
<path d="M46.3333 11.8622L50.0246 0.741536H47.5014L44.9938 8.56028H44.9627L42.4862 0.741536H39.9786L43.5765 11.8622H46.3333Z" fill="#333333"/>
<path d="M50.9729 0.741536V11.8622H59.4146V9.80629H53.4182V7.08063H58.8072V5.18046H53.4182V2.79746H59.29V0.741536H50.9729Z" fill="#333333"/>
<path d="M62.7389 8.1709H60.3715C60.3611 8.8562 60.4857 9.44806 60.7453 9.94647C61.0049 10.4449 61.3527 10.855 61.7888 11.1769C62.2353 11.4988 62.7441 11.7324 63.3152 11.8778C63.8967 12.0335 64.4937 12.1114 65.1064 12.1114C65.8644 12.1114 66.5289 12.0232 67.1 11.8466C67.6815 11.6701 68.1643 11.4261 68.5485 11.1146C68.943 10.7927 69.239 10.4137 69.4363 9.97762C69.6335 9.54151 69.7322 9.06906 69.7322 8.56028C69.7322 7.93727 69.5972 7.42848 69.3272 7.03391C69.0676 6.62895 68.7561 6.30707 68.3927 6.06825C68.0293 5.82943 67.6607 5.6581 67.2869 5.55427C66.9235 5.44005 66.6379 5.36217 66.4303 5.32064C65.7346 5.14412 65.1687 4.99875 64.7326 4.88453C64.3068 4.77032 63.9694 4.6561 63.7202 4.54188C63.4813 4.42766 63.3204 4.30306 63.2373 4.16808C63.1543 4.03309 63.1127 3.85657 63.1127 3.63852C63.1127 3.3997 63.1647 3.20241 63.2685 3.04666C63.3723 2.89091 63.5021 2.76112 63.6579 2.65728C63.824 2.55345 64.0057 2.48076 64.203 2.43923C64.4003 2.3977 64.5976 2.37693 64.7949 2.37693C65.096 2.37693 65.3711 2.40289 65.6203 2.45481C65.8799 2.50672 66.1084 2.59498 66.3056 2.71958C66.5029 2.84419 66.6587 3.01551 66.7729 3.23356C66.8975 3.45162 66.9702 3.72678 66.991 4.05905H69.3584C69.3584 3.41527 69.2338 2.87014 68.9846 2.42366C68.7458 1.96678 68.4187 1.59298 68.0033 1.30224C67.588 1.01151 67.1104 0.803837 66.5704 0.679235C66.0409 0.544251 65.4854 0.476758 64.9039 0.476758C64.4055 0.476758 63.9071 0.544251 63.4087 0.679235C62.9103 0.81422 62.4638 1.02189 62.0692 1.30224C61.6746 1.5826 61.3527 1.93563 61.1035 2.36135C60.8647 2.77669 60.7453 3.26991 60.7453 3.841C60.7453 4.34979 60.8388 4.78589 61.0257 5.14931C61.2229 5.50235 61.4773 5.79828 61.7888 6.0371C62.1004 6.27592 62.4534 6.4732 62.848 6.62895C63.2425 6.77432 63.6475 6.89892 64.0628 7.00276C64.4678 7.11698 64.8675 7.22081 65.2621 7.31426C65.6567 7.40771 66.0097 7.51674 66.3212 7.64134C66.6327 7.76594 66.8819 7.92169 67.0688 8.1086C67.2661 8.2955 67.3648 8.53951 67.3648 8.84063C67.3648 9.12098 67.2921 9.35461 67.1467 9.54151C67.0013 9.71803 66.8196 9.85821 66.6016 9.96204C66.3835 10.0659 66.1499 10.1386 65.9007 10.1801C65.6515 10.2112 65.4179 10.2268 65.1998 10.2268C64.8779 10.2268 64.5664 10.1905 64.2653 10.1178C63.9642 10.0347 63.6994 9.91532 63.471 9.75956C63.2529 9.59343 63.0764 9.38057 62.9414 9.12098C62.8064 8.8614 62.7389 8.5447 62.7389 8.1709Z" fill="#333333"/>
<path d="M73.648 2.79746V11.8622H76.0933V2.79746H79.4264V0.741536H70.3149V2.79746H73.648Z" fill="#333333"/>
<path d="M86.3677 45.347C86.3677 45.8973 86.0666 46.349 85.4643 46.702C84.8725 47.0446 84.1976 47.216 83.4396 47.216C82.6919 47.216 82.0118 47.1329 81.3992 46.9668C81.2538 47.4236 81.1812 47.8338 81.1812 48.1972C81.1812 48.5502 81.2902 48.8254 81.5082 49.0227C81.7367 49.22 82.1053 49.3186 82.6141 49.3186C83.1332 49.3186 83.6628 49.2304 84.2027 49.0538C84.7531 48.8669 85.0542 48.7735 85.1061 48.7735C85.3761 48.7735 85.5111 48.8773 85.5111 49.085C85.5111 49.3653 85.1944 49.6717 84.561 50.0039C83.9276 50.3258 83.3098 50.4868 82.7075 50.4868C81.8976 50.4868 81.2383 50.2479 80.7295 49.7703C80.2207 49.2823 79.9663 48.6697 79.9663 47.9324C79.9663 47.1952 80.1636 46.4268 80.5582 45.6273C80.9527 44.8174 81.4615 44.1373 82.0845 43.587C82.7075 43.0366 83.3253 42.7615 83.938 42.7615C84.5506 42.7615 85.1061 43.0522 85.6045 43.6337C86.1133 44.2152 86.3677 44.7862 86.3677 45.347ZM84.0158 43.9919C83.6317 43.9919 83.2319 44.1944 82.8166 44.5993C82.4012 44.9939 82.0482 45.4871 81.7574 46.079C82.1728 46.1724 82.6452 46.2192 83.1748 46.2192C83.7043 46.2192 84.1664 46.1361 84.561 45.97C84.9555 45.7934 85.1528 45.565 85.1528 45.2846C85.1528 45.0043 85.023 44.7188 84.7634 44.428C84.5142 44.1373 84.265 43.9919 84.0158 43.9919Z" fill="#219653"/>
<path d="M88.2865 50.5179C88.1515 50.5179 88.0061 50.4193 87.8504 50.222C87.6946 50.0247 87.6167 49.8638 87.6167 49.7392C87.6167 49.6145 87.6687 49.3705 87.7725 49.0071C88.2917 47.1381 88.6447 45.8038 88.8316 45.0043C88.3851 45.1081 88.0788 45.16 87.9127 45.16C87.7465 45.16 87.5804 45.0874 87.4143 44.942C87.2481 44.7966 87.1651 44.6357 87.1651 44.4592C87.1651 44.2826 87.3987 44.1269 87.866 43.9919C88.4682 43.8465 88.8835 43.7531 89.112 43.7116C89.2158 43.2132 89.2937 42.829 89.3456 42.559C89.5948 41.1261 89.9323 40.0929 90.358 39.4595C90.7837 38.8261 91.36 38.5094 92.0868 38.5094C92.606 38.5094 93.0317 38.7171 93.364 39.1325C93.6963 39.5374 93.8624 40.0202 93.8624 40.5809C93.8624 41.1313 93.717 41.4064 93.4263 41.4064C93.1771 41.4064 92.9746 41.1261 92.8189 40.5654C92.7669 40.3577 92.6787 40.1656 92.5541 39.9891C92.4295 39.8126 92.2789 39.7243 92.1024 39.7243C91.9259 39.7243 91.7649 39.8074 91.6196 39.9735C91.4742 40.1293 91.3444 40.3577 91.2302 40.6588C90.9291 41.4999 90.7214 42.2683 90.6072 42.9639L90.4826 43.5091C90.8668 43.4572 91.2458 43.4312 91.6196 43.4312C92.0038 43.4312 92.2789 43.4727 92.4451 43.5558C92.6216 43.6389 92.7098 43.7427 92.7098 43.8673C92.7098 44.0646 92.5385 44.2152 92.1958 44.319C91.8532 44.4228 91.1835 44.5578 90.1867 44.7239C89.4494 47.7144 88.9458 49.4951 88.6759 50.0662C88.5305 50.3673 88.4007 50.5179 88.2865 50.5179Z" fill="#219653"/>
<path d="M94.1424 50.5179C94.0074 50.5179 93.862 50.4193 93.7063 50.222C93.5505 50.0247 93.4726 49.8638 93.4726 49.7392C93.4726 49.6145 93.5246 49.3705 93.6284 49.0071C94.1476 47.1381 94.5006 45.8038 94.6875 45.0043C94.241 45.1081 93.9347 45.16 93.7686 45.16C93.6024 45.16 93.4363 45.0874 93.2702 44.942C93.104 44.7966 93.021 44.6357 93.021 44.4592C93.021 44.2826 93.2546 44.1269 93.7219 43.9919C94.3241 43.8465 94.7394 43.7531 94.9679 43.7116C95.0717 43.2132 95.1496 42.829 95.2015 42.559C95.4507 41.1261 95.7882 40.0929 96.2139 39.4595C96.6396 38.8261 97.2159 38.5094 97.9427 38.5094C98.4619 38.5094 98.8876 38.7171 99.2199 39.1325C99.5522 39.5374 99.7183 40.0202 99.7183 40.5809C99.7183 41.1313 99.5729 41.4064 99.2822 41.4064C99.033 41.4064 98.8305 41.1261 98.6748 40.5654C98.6228 40.3577 98.5346 40.1656 98.41 39.9891C98.2854 39.8126 98.1348 39.7243 97.9583 39.7243C97.7818 39.7243 97.6208 39.8074 97.4755 39.9735C97.3301 40.1293 97.2003 40.3577 97.0861 40.6588C96.785 41.4999 96.5773 42.2683 96.4631 42.9639L96.3385 43.5091C96.7227 43.4572 97.1017 43.4312 97.4755 43.4312C97.8597 43.4312 98.1348 43.4727 98.301 43.5558C98.4775 43.6389 98.5657 43.7427 98.5657 43.8673C98.5657 44.0646 98.3944 44.2152 98.0518 44.319C97.7091 44.4228 97.0394 44.5578 96.0426 44.7239C95.3053 47.7144 94.8017 49.4951 94.5318 50.0662C94.3864 50.3673 94.2566 50.5179 94.1424 50.5179Z" fill="#219653"/>
<path d="M105.091 45.347C105.091 45.8973 104.79 46.349 104.188 46.702C103.596 47.0446 102.921 47.216 102.163 47.216C101.416 47.216 100.736 47.1329 100.123 46.9668C99.9775 47.4236 99.9048 47.8338 99.9048 48.1972C99.9048 48.5502 100.014 48.8254 100.232 49.0227C100.46 49.22 100.829 49.3186 101.338 49.3186C101.857 49.3186 102.386 49.2304 102.926 49.0538C103.477 48.8669 103.778 48.7735 103.83 48.7735C104.1 48.7735 104.235 48.8773 104.235 49.085C104.235 49.3653 103.918 49.6717 103.285 50.0039C102.651 50.3258 102.033 50.4868 101.431 50.4868C100.621 50.4868 99.9619 50.2479 99.4532 49.7703C98.9444 49.2823 98.69 48.6697 98.69 47.9324C98.69 47.1952 98.8873 46.4268 99.2818 45.6273C99.6764 44.8174 100.185 44.1373 100.808 43.587C101.431 43.0366 102.049 42.7615 102.662 42.7615C103.274 42.7615 103.83 43.0522 104.328 43.6337C104.837 44.2152 105.091 44.7862 105.091 45.347ZM102.74 43.9919C102.355 43.9919 101.956 44.1944 101.54 44.5993C101.125 44.9939 100.772 45.4871 100.481 46.079C100.896 46.1724 101.369 46.2192 101.898 46.2192C102.428 46.2192 102.89 46.1361 103.285 45.97C103.679 45.7934 103.877 45.565 103.877 45.2846C103.877 45.0043 103.747 44.7188 103.487 44.428C103.238 44.1373 102.989 43.9919 102.74 43.9919Z" fill="#219653"/>
<path d="M112.773 43.6025C112.773 43.696 112.311 44.184 111.387 45.0666C111.044 45.3989 110.727 45.7934 110.437 46.2503C110.156 46.6968 110.016 47.1069 110.016 47.4808C110.016 47.8546 110.125 48.2024 110.343 48.5243C110.572 48.8358 110.816 49.0746 111.075 49.2407C111.345 49.3965 111.589 49.5522 111.807 49.708C112.036 49.8638 112.15 49.9935 112.15 50.0974C112.15 50.357 111.942 50.4868 111.527 50.4868C111.122 50.4868 110.634 50.2583 110.063 49.8015C109.502 49.3342 109.154 48.815 109.019 48.2439C108.967 48.1401 108.926 48.0415 108.895 47.948C108.189 48.9033 107.675 49.5678 107.353 49.9416C107.041 50.305 106.808 50.4868 106.652 50.4868C106.496 50.4868 106.325 50.3673 106.138 50.1285C105.951 49.8793 105.858 49.6768 105.858 49.5211C105.858 49.355 106.024 48.6852 106.356 47.5119C106.699 46.3282 107.036 44.9108 107.368 43.2599C107.711 41.6089 107.882 40.1345 107.882 38.8365C107.882 38.6704 107.903 38.5562 107.945 38.4939C107.997 38.4316 108.1 38.4004 108.256 38.4004C108.412 38.4004 108.604 38.5562 108.832 38.8677C109.061 39.1688 109.175 39.4647 109.175 39.7555C109.175 40.6796 108.988 41.9723 108.614 43.6337C108.241 45.295 107.794 46.8733 107.275 48.3685C108.448 46.6968 109.461 45.347 110.312 44.319C111.174 43.2806 111.703 42.7615 111.901 42.7615C112.108 42.7615 112.306 42.8601 112.493 43.0574C112.68 43.2547 112.773 43.4364 112.773 43.6025Z" fill="#219653"/>
<path d="M114.934 48.9292C114.934 49.1265 115.048 49.2252 115.277 49.2252C115.671 49.2252 116.149 49.1161 116.71 48.8981C117.281 48.6697 117.597 48.5554 117.66 48.5554C117.847 48.5554 117.94 48.6541 117.94 48.8514C117.94 49.1525 117.629 49.5003 117.006 49.8949C116.393 50.2895 115.832 50.4868 115.323 50.4868C114.825 50.4868 114.41 50.3518 114.077 50.0818C113.745 49.8015 113.579 49.5159 113.579 49.2252C113.579 48.9344 113.641 48.5658 113.766 48.1193C113.89 47.6625 114.067 47.0654 114.295 46.3282C114.534 45.5806 114.721 44.9628 114.856 44.4747C114.368 44.589 114.041 44.6461 113.875 44.6461C113.709 44.6461 113.543 44.563 113.377 44.3969C113.221 44.2203 113.143 44.0542 113.143 43.8985C113.143 43.6493 113.818 43.4104 115.168 43.182C115.355 42.3202 115.448 41.557 115.448 40.8924C115.448 40.5809 115.552 40.4252 115.76 40.4252C115.936 40.4252 116.154 40.5394 116.414 40.7678C116.673 40.9859 116.803 41.2351 116.803 41.5155C116.803 41.7958 116.715 42.289 116.538 42.9951C117.13 42.9432 117.603 42.9172 117.956 42.9172C118.579 42.9172 118.89 43.0522 118.89 43.3222C118.89 43.4779 118.719 43.6077 118.376 43.7116C118.044 43.8154 117.338 43.9763 116.258 44.1944C116.04 45.0147 115.765 45.9544 115.432 47.0135C115.1 48.0622 114.934 48.7008 114.934 48.9292Z" fill="#219653"/>
<path d="M121.206 40.5498C121.206 40.3421 121.29 40.1448 121.456 39.9579C121.622 39.771 121.788 39.6776 121.954 39.6776C122.131 39.6776 122.338 39.8904 122.577 40.3162C122.816 40.7315 122.935 41.0794 122.935 41.3597C122.935 41.4635 122.889 41.557 122.795 41.6401C122.702 41.7231 122.603 41.7647 122.499 41.7647C122.25 41.7647 121.97 41.6141 121.658 41.313C121.357 41.0119 121.206 40.7575 121.206 40.5498ZM121.129 42.7615C121.326 42.7615 121.513 42.8809 121.689 43.1197C121.866 43.3585 121.954 43.5921 121.954 43.8206C121.954 44.049 121.803 44.7343 121.502 45.8765C121.201 47.0083 120.822 48.2803 120.365 49.6924C120.189 50.2116 119.966 50.4712 119.696 50.4712C119.55 50.4712 119.426 50.4141 119.322 50.2999C119.218 50.1753 119.166 50.0403 119.166 49.8949C119.166 49.7392 119.202 49.5003 119.275 49.1784C119.358 48.8462 119.472 48.4101 119.618 47.8701C119.774 47.3198 119.893 46.8733 119.976 46.5307C120.069 46.188 120.163 45.8038 120.256 45.3781C120.35 44.942 120.422 44.5942 120.474 44.3346C120.537 44.0646 120.604 43.7946 120.677 43.5247C120.822 43.0159 120.973 42.7615 121.129 42.7615Z" fill="#219653"/>
<path d="M128.298 42.7615C128.474 42.7615 128.645 42.829 128.812 42.9639C128.978 43.0885 129.061 43.2287 129.061 43.3845C129.061 43.6648 128.682 44.6357 127.924 46.297C127.176 47.9584 126.641 49.0798 126.319 49.6613C126.008 50.2324 125.733 50.5179 125.494 50.5179C125.359 50.5179 125.193 50.4193 124.996 50.222C124.798 50.0247 124.653 49.8118 124.559 49.5834C124.279 48.9292 123.978 47.8753 123.656 46.4216C123.334 44.968 123.173 43.9037 123.173 43.2287C123.173 42.9172 123.267 42.7615 123.454 42.7615C123.682 42.7615 123.916 42.8601 124.155 43.0574C124.393 43.2443 124.559 43.4831 124.653 43.7739C124.684 43.94 124.726 44.3553 124.778 45.0199C124.923 46.6605 125.172 47.922 125.525 48.8046C125.805 48.2024 126.164 47.351 126.6 46.2503C127.036 45.1393 127.389 44.2826 127.659 43.6804C127.939 43.0678 128.152 42.7615 128.298 42.7615Z" fill="#219653"/>
<path d="M141.12 42.7615C141.296 42.7615 141.468 42.829 141.634 42.9639C141.8 43.0885 141.883 43.2287 141.883 43.3845C141.883 43.6648 141.504 44.6357 140.746 46.297C139.998 47.9584 139.464 49.0798 139.142 49.6613C138.83 50.2324 138.555 50.5179 138.316 50.5179C138.181 50.5179 138.015 50.4193 137.818 50.222C137.62 50.0247 137.475 49.8118 137.382 49.5834C137.101 48.9292 136.8 47.8753 136.478 46.4216C136.156 44.968 135.995 43.9037 135.995 43.2287C135.995 42.9172 136.089 42.7615 136.276 42.7615C136.504 42.7615 136.738 42.8601 136.977 43.0574C137.215 43.2443 137.382 43.4831 137.475 43.7739C137.506 43.94 137.548 44.3553 137.6 45.0199C137.745 46.6605 137.994 47.922 138.347 48.8046C138.628 48.2024 138.986 47.351 139.422 46.2503C139.858 45.1393 140.211 44.2826 140.481 43.6804C140.761 43.0678 140.974 42.7615 141.12 42.7615Z" fill="#219653"/>
<path d="M146.46 42.7615C146.927 42.7615 147.358 43.0003 147.753 43.4779C148.147 43.9452 148.345 44.3709 148.345 44.7551C148.345 45.1289 148.215 45.5131 147.955 45.9077C148.08 46.0634 148.142 46.1984 148.142 46.3126C148.142 46.6033 148.075 47.1018 147.94 47.8078C147.815 48.5139 147.737 48.976 147.706 49.194C147.685 49.4121 147.664 49.5886 147.644 49.7236C147.623 49.8482 147.597 49.9728 147.566 50.0974C147.524 50.357 147.431 50.4868 147.285 50.4868C147.099 50.4868 146.943 50.3258 146.818 50.0039C146.704 49.6717 146.637 49.2459 146.616 48.7268C145.692 49.9001 144.835 50.4868 144.046 50.4868C143.568 50.4868 143.096 50.2843 142.629 49.8793C142.172 49.464 141.943 49.0383 141.943 48.6022C141.943 47.9792 142.172 47.2108 142.629 46.297C143.085 45.3729 143.677 44.5526 144.404 43.8362C145.131 43.1197 145.816 42.7615 146.46 42.7615ZM147.176 45.5027C147.176 44.537 146.984 44.0542 146.6 44.0542C146.195 44.0542 145.723 44.3449 145.183 44.9264C144.643 45.4975 144.186 46.1465 143.812 46.8733C143.438 47.6002 143.252 48.1764 143.252 48.6022C143.252 48.7787 143.324 48.924 143.47 49.0383C143.615 49.1421 143.786 49.194 143.984 49.194C144.472 49.194 145.022 48.8669 145.635 48.2128C146.247 47.5482 146.673 46.7435 146.912 45.7986C146.943 45.6429 147.031 45.5494 147.176 45.5183V45.5027Z" fill="#219653"/>
<path d="M150.552 44.6616L150.506 43.4935C150.506 43.0055 150.62 42.7615 150.848 42.7615C151.046 42.7615 151.233 42.8913 151.409 43.1509C151.596 43.4001 151.689 43.7012 151.689 44.0542C151.689 44.3969 151.679 44.6565 151.658 44.833C152.562 43.4624 153.418 42.777 154.228 42.777C154.737 42.777 154.991 42.9016 154.991 43.1509C154.991 43.2755 154.934 43.3897 154.82 43.4935C154.706 43.5973 154.524 43.7167 154.275 43.8517C153.725 44.0906 153.257 44.4592 152.873 44.9576C152.499 45.4456 152.193 46.0011 151.954 46.6241C151.715 47.2471 151.523 47.7715 151.378 48.1972C151.243 48.6229 151.139 48.9552 151.066 49.194C150.994 49.4328 150.911 49.6665 150.817 49.8949C150.651 50.3102 150.459 50.5179 150.241 50.5179C150.064 50.5179 149.919 50.4193 149.805 50.222C149.701 50.0143 149.649 49.817 149.649 49.6301C149.649 49.4328 149.737 49.0487 149.914 48.4776C150.34 47.1692 150.552 45.8973 150.552 44.6616Z" fill="#219653"/>
<path d="M164.851 42.7615C165.163 42.7615 165.438 42.9795 165.677 43.4156C165.926 43.8413 166.051 44.3294 166.051 44.8797C166.051 45.4196 165.952 46.1257 165.755 46.9979C165.568 47.8701 165.313 48.6697 164.991 49.3965C164.67 50.1233 164.353 50.4868 164.041 50.4868C163.823 50.4868 163.714 50.3466 163.714 50.0662C163.714 49.7755 163.891 49.0746 164.244 47.9636C164.607 46.8422 164.789 45.9544 164.789 45.3002C164.789 44.6357 164.685 44.3034 164.477 44.3034C164.218 44.3034 163.917 44.5318 163.574 44.9887C163.242 45.4456 162.884 45.9959 162.499 46.6397C162.115 47.2835 161.908 47.6313 161.876 47.6832C161.845 47.7248 161.804 47.7871 161.752 47.8701C161.71 47.9532 161.658 48.0415 161.596 48.1349C161.544 48.2284 161.399 48.5087 161.16 48.976C160.931 49.4432 160.729 49.8118 160.553 50.0818C160.376 50.3414 160.22 50.4712 160.085 50.4712C159.961 50.4712 159.82 50.3881 159.665 50.222C159.509 50.0558 159.431 49.9001 159.431 49.7547C159.431 49.6094 159.525 49.3082 159.711 48.8514C160.251 47.5015 160.521 46.2451 160.521 45.0822C160.521 44.8641 160.475 44.6824 160.381 44.537C160.288 44.3813 160.184 44.3034 160.07 44.3034C159.955 44.3034 159.836 44.3553 159.711 44.4592C159.587 44.5526 159.431 44.7291 159.244 44.9887C159.057 45.2379 158.891 45.4767 158.746 45.7052C158.6 45.9336 158.377 46.2918 158.076 46.7799C157.785 47.2575 157.562 47.6157 157.406 47.8546C157.261 48.083 157.09 48.353 156.892 48.6645C156.695 48.9656 156.539 49.1992 156.425 49.3653C156.321 49.5315 156.202 49.7132 156.067 49.9105C155.787 50.2947 155.579 50.4868 155.444 50.4868C155.319 50.4868 155.153 50.3725 154.945 50.1441C154.738 49.9053 154.634 49.7288 154.634 49.6145C154.634 49.4899 154.655 49.3394 154.696 49.1629C154.738 48.9863 154.779 48.815 154.821 48.6489C154.873 48.4828 154.945 48.2387 155.039 47.9169C155.143 47.5846 155.257 47.2004 155.382 46.7643C155.517 46.3178 155.615 45.7104 155.677 44.942C155.75 44.1632 155.802 43.5973 155.833 43.2443C155.864 42.8809 155.953 42.6992 156.098 42.6992C156.326 42.6992 156.55 42.8186 156.768 43.0574C156.996 43.2962 157.11 43.535 157.11 43.7739C157.11 44.6876 156.768 46.1932 156.082 48.2907C157.245 46.1101 157.977 44.8174 158.279 44.4124C158.58 44.0075 158.839 43.6804 159.057 43.4312C159.462 42.9847 159.872 42.7615 160.288 42.7615C160.537 42.7615 160.833 42.9795 161.176 43.4156C161.529 43.8413 161.705 44.2723 161.705 44.7084C161.705 45.1445 161.643 45.6844 161.518 46.3282C162.743 43.9504 163.854 42.7615 164.851 42.7615Z" fill="#219653"/>
<path d="M173.385 45.347C173.385 45.8973 173.084 46.349 172.482 46.702C171.89 47.0446 171.215 47.216 170.457 47.216C169.709 47.216 169.029 47.1329 168.416 46.9668C168.271 47.4236 168.198 47.8338 168.198 48.1972C168.198 48.5502 168.307 48.8254 168.525 49.0227C168.754 49.22 169.122 49.3186 169.631 49.3186C170.15 49.3186 170.68 49.2304 171.22 49.0538C171.77 48.8669 172.071 48.7735 172.123 48.7735C172.393 48.7735 172.528 48.8773 172.528 49.085C172.528 49.3653 172.212 49.6717 171.578 50.0039C170.945 50.3258 170.327 50.4868 169.725 50.4868C168.915 50.4868 168.255 50.2479 167.747 49.7703C167.238 49.2823 166.983 48.6697 166.983 47.9324C166.983 47.1952 167.181 46.4268 167.575 45.6273C167.97 44.8174 168.479 44.1373 169.102 43.587C169.725 43.0366 170.343 42.7615 170.955 42.7615C171.568 42.7615 172.123 43.0522 172.622 43.6337C173.13 44.2152 173.385 44.7862 173.385 45.347ZM171.033 43.9919C170.649 43.9919 170.249 44.1944 169.834 44.5993C169.418 44.9939 169.065 45.4871 168.775 46.079C169.19 46.1724 169.662 46.2192 170.192 46.2192C170.722 46.2192 171.184 46.1361 171.578 45.97C171.973 45.7934 172.17 45.565 172.17 45.2846C172.17 45.0043 172.04 44.7188 171.781 44.428C171.531 44.1373 171.282 43.9919 171.033 43.9919Z" fill="#219653"/>
<path d="M175.023 48.8202C175.2 48.6022 175.376 48.4931 175.553 48.4931C175.729 48.4931 175.942 48.7475 176.191 49.2563C176.441 49.7547 176.565 50.1285 176.565 50.3777C176.565 50.4504 176.513 50.5335 176.409 50.6269C176.306 50.7204 176.207 50.7671 176.114 50.7671C175.854 50.7671 175.563 50.6062 175.241 50.2843C174.919 49.952 174.759 49.682 174.759 49.4744C174.759 49.2563 174.847 49.0383 175.023 48.8202ZM177.033 38.1045C177.23 38.1045 177.5 38.2291 177.842 38.4783C178.185 38.7275 178.356 38.9248 178.356 39.0702C178.356 39.9527 178.128 41.5051 177.671 43.7271C177.225 45.9492 176.866 47.0602 176.596 47.0602C176.43 47.0602 176.275 46.9772 176.129 46.811C175.984 46.6345 175.911 46.4528 175.911 46.2659C175.901 46.2036 175.963 45.8298 176.098 45.1445C176.243 44.4592 176.394 43.4987 176.55 42.2631C176.705 41.0171 176.783 39.7658 176.783 38.5094C176.783 38.2395 176.866 38.1045 177.033 38.1045Z" fill="#219653"/>
</svg>
